<?xml version="1.0" encoding="UTF-8"?>
<svg id="Capa_1" xmlns="http://www.w3.org/2000/svg" version="1.1" viewBox="0 0 510.24 510.24">
  <!-- Generator: Adobe Illustrator 30.3.0, SVG Export Plug-In . SVG Version: 2.1.3 Build 182)  -->
  <path d="M255.12,0C114.24,0,0,114.24,0,255.12s114.24,255.12,255.12,255.12,255.12-114.24,255.12-255.12S395.99,0,255.12,0ZM383.11,195.2v34.54c-16.29,0-32.11-3.19-47.04-9.48-9.6-4.05-18.54-9.27-26.72-15.58l.25,106.33c-.1,23.94-9.57,46.44-26.72,63.38-13.95,13.79-31.63,22.56-50.79,25.4-4.5.67-9.08,1.01-13.72,1.01-20.51,0-39.99-6.65-55.92-18.9-3-2.31-5.86-4.81-8.59-7.51-18.58-18.36-28.16-43.25-26.55-69.43,1.23-19.93,9.21-38.94,22.51-53.83,17.6-19.71,42.22-30.66,68.55-30.66,4.63,0,9.22.35,13.72,1.01v48.3c-4.27-1.41-8.83-2.18-13.58-2.18-24.05,0-43.51,19.62-43.15,43.69.23,15.4,8.64,28.86,21.05,36.28,5.83,3.49,12.54,5.65,19.7,6.04,5.61.31,10.99-.47,15.98-2.12,17.18-5.68,29.58-21.82,29.58-40.85l.06-71.2V109.44h47.57c.05,4.71.52,9.31,1.41,13.77,3.59,18.04,13.76,33.69,27.91,44.36,12.34,9.31,27.7,14.82,44.36,14.82.01,0,.15,0,.14-.01v12.82h0Z"/>
</svg>